<?xml version="1.0" encoding="utf-8"?>
<!-- Generator: Adobe Illustrator 15.0.2, SVG Export Plug-In . SVG Version: 6.00 Build 0)  -->
<!DOCTYPE svg PUBLIC "-//W3C//DTD SVG 1.1//EN" "http://www.w3.org/Graphics/SVG/1.1/DTD/svg11.dtd">
<svg version="1.1" id="Layer_1" xmlns="http://www.w3.org/2000/svg" xmlns:xlink="http://www.w3.org/1999/xlink" x="0px" y="0px"
	 width="175px" height="68px" viewBox="-32.636 98.049 175 68" enable-background="new -32.636 98.049 175 68" xml:space="preserve"
	>
<path d="M126.852,143.455h-14.848c-6.194,0-11.232-5.13-11.232-11.438h2.876c0,4.721,3.748,8.562,8.356,8.562h14.848V143.455z"/>
<path d="M-0.211,143.455c-6.271,0-11.373-5.102-11.373-11.373s5.102-11.373,11.373-11.373c6.271,0,11.373,5.102,11.373,11.373
	S6.06,143.455-0.211,143.455z M-0.211,123.586c-4.685,0-8.497,3.811-8.497,8.496s3.812,8.497,8.497,8.497
	c4.685,0,8.496-3.812,8.496-8.497S4.474,123.586-0.211,123.586z"/>
<path d="M23.614,143.455c-6.271,0-11.373-5.102-11.373-11.373s5.102-11.373,11.373-11.373c6.271,0,11.373,5.102,11.373,11.373
	S29.885,143.455,23.614,143.455z M23.614,123.586c-4.685,0-8.497,3.811-8.497,8.496s3.812,8.497,8.497,8.497
	c4.686,0,8.497-3.812,8.497-8.497S28.3,123.586,23.614,123.586z"/>
<path d="M126.677,143.455c-6.271,0-11.373-5.102-11.373-11.374c0-6.271,5.102-11.372,11.373-11.372s11.373,5.102,11.373,11.372
	C138.05,138.354,132.948,143.455,126.677,143.455z M126.677,123.586c-4.686,0-8.497,3.811-8.497,8.495
	c0,4.686,3.812,8.498,8.497,8.498c4.685,0,8.497-3.812,8.497-8.498C135.174,127.396,131.361,123.586,126.677,123.586z"/>
<path d="M48.135,143.455c-6.271,0-11.373-5.102-11.373-11.373s5.102-11.373,11.373-11.373c6.271,0,11.374,5.102,11.374,11.373
	S54.406,143.455,48.135,143.455z M48.135,123.586c-4.686,0-8.497,3.811-8.497,8.496s3.812,8.497,8.497,8.497
	c4.685,0,8.497-3.812,8.497-8.497S52.82,123.586,48.135,123.586z"/>
<rect x="36.762" y="132.082" width="2.876" height="29.62"/>
<path d="M72.899,143.455c-6.271,0-11.373-5.102-11.373-11.373s5.102-11.373,11.373-11.373s11.373,5.102,11.373,11.373
	S79.17,143.455,72.899,143.455z M72.899,123.586c-4.685,0-8.496,3.811-8.496,8.496s3.811,8.497,8.496,8.497s8.497-3.812,8.497-8.497
	S77.584,123.586,72.899,123.586z"/>
<path d="M73.851,143.455h-90.816c-6.262,0-11.356-5.13-11.356-11.437v-29.622h2.876v29.622c0,4.721,3.804,8.561,8.48,8.561h90.816
	V143.455z"/>
<path d="M92.271,143.455l-0.002-0.012c-5.195-0.021-10.788-4.365-10.788-11.374h2.875c0,5.248,4.126,8.498,7.95,8.498l0.001,0.012
	c4.829-0.019,8.465-3.668,8.465-8.503l-0.005-29.422h2.876l0.005,29.422C103.647,138.457,98.649,143.455,92.271,143.455z"/>
<path fill="#41ABE6" d="M142.364,132.081c0-8.648-7.037-15.687-15.688-15.687c-8.649,0-15.688,7.038-15.688,15.687
	c0,1.434,0.21,2.816,0.571,4.137c-2.018-0.235-3.599-2.018-3.599-4.2l0,0l-0.005-29.364c-0.001-2.382-1.932-4.313-4.314-4.313
	h-2.876c-1.145,0-2.242,0.455-3.051,1.264c-0.81,0.81-1.264,1.907-1.264,3.052l0.005,29.421c0,2.376-1.604,4.066-3.928,4.183
	c-0.074-0.004-0.148-0.006-0.224-0.006c-1.467,0-3.635-1.33-3.635-4.184c0-0.357-0.056-0.698-0.138-1.03
	c-0.541-8.163-7.336-14.645-15.634-14.645c-5.034,0-9.509,2.394-12.381,6.091c-2.873-3.697-7.349-6.091-12.382-6.091
	c-4.961,0-9.384,2.322-12.26,5.929c-2.877-3.606-7.3-5.929-12.261-5.929c-4.766,0-9.033,2.144-11.913,5.509
	c-2.879-3.365-7.147-5.509-11.913-5.509c-8.65,0-15.688,7.038-15.688,15.688c0,1.45,0.213,2.849,0.583,4.183h-1.65
	c-2.297,0-4.166-1.905-4.166-4.246v-29.622c0-2.383-1.932-4.314-4.314-4.314h-2.876c-2.383,0-4.314,1.932-4.314,4.314v29.622
	c0,8.685,7.03,15.751,15.671,15.751h49.413v13.933c0,2.383,1.932,4.314,4.314,4.314h2.876c2.383,0,4.314-1.932,4.314-4.314V147.77
	h29.898c0.361,0,0.707-0.058,1.042-0.142c2.975-0.38,5.695-1.585,7.911-3.395c2.636,2.171,5.885,3.411,9.057,3.517
	c0.136,0.014,0.272,0.02,0.41,0.02c3.825,0,7.288-1.305,9.982-3.501c2.67,2.186,6.06,3.501,9.751,3.501h14.848
	c0.061,0,0.116-0.016,0.177-0.018C135.516,147.562,142.364,140.614,142.364,132.081z M72.899,127.899
	c2.306,0,4.182,1.877,4.182,4.183c0,2.307-1.876,4.183-4.182,4.183s-4.182-1.876-4.182-4.183
	C68.717,129.776,70.593,127.899,72.899,127.899z M48.135,127.899c2.307,0,4.183,1.877,4.183,4.183c0,2.307-1.876,4.183-4.183,4.183
	c-2.306,0-4.183-1.876-4.183-4.183C43.953,129.776,45.829,127.899,48.135,127.899z M23.614,127.899c2.306,0,4.183,1.877,4.183,4.183
	c0,2.307-1.876,4.183-4.183,4.183s-4.182-1.876-4.182-4.183C19.432,129.776,21.308,127.899,23.614,127.899z M-4.394,132.082
	c0-2.306,1.876-4.183,4.183-4.183s4.182,1.877,4.182,4.183c0,2.307-1.876,4.183-4.182,4.183S-4.394,134.389-4.394,132.082z
	 M126.677,127.899c2.307,0,4.183,1.876,4.183,4.182c0,2.308-1.876,4.184-4.183,4.184c-2.306,0-4.183-1.876-4.183-4.184
	C122.494,129.775,124.371,127.899,126.677,127.899z"/>
<path fill="#C3D2A0" d="M140.207,132.081c0-7.459-6.069-13.528-13.53-13.528s-13.529,6.069-13.529,13.528
	c0,2.291,0.576,4.448,1.586,6.342h-2.729c-3.418,0-6.199-2.874-6.199-6.405l0,0l-0.005-29.363c0-1.191-0.966-2.156-2.157-2.156
	h-2.876c-0.571,0-1.12,0.227-1.525,0.631c-0.404,0.405-0.632,0.954-0.631,1.525l0.004,29.422c0,3.596-2.56,6.234-6.115,6.343
	c-0.063-0.006-0.129-0.009-0.193-0.009c-2.786,0-5.793-2.425-5.793-6.341c0-0.238-0.048-0.464-0.12-0.679
	c-0.363-7.138-6.267-12.838-13.494-12.838c-5.527,0-10.284,3.335-12.381,8.096c-2.098-4.761-6.855-8.096-12.382-8.096
	c-5.428,0-10.107,3.22-12.26,7.844c-2.154-4.624-6.833-7.844-12.261-7.844c-5.144,0-9.625,2.886-11.913,7.123
	c-2.288-4.237-6.769-7.123-11.913-7.123c-7.461,0-13.53,6.069-13.53,13.529c0,2.291,0.577,4.448,1.585,6.341h-4.809
	c-3.487,0-6.323-2.874-6.323-6.404v-29.622c0-1.191-0.966-2.157-2.157-2.157h-2.876c-1.191,0-2.157,0.966-2.157,2.157v29.622
	c0,7.496,6.062,13.594,13.514,13.594h51.57v16.09c0,1.191,0.966,2.157,2.157,2.157h2.876c1.191,0,2.157-0.966,2.157-2.157v-16.09
	h32.056c0.212,0,0.413-0.04,0.606-0.097c3.288-0.38,6.211-1.945,8.351-4.253c2.456,2.693,5.88,4.246,9.2,4.334
	c0.086,0.011,0.174,0.016,0.262,0.016c3.991,0,7.517-1.655,9.973-4.318c2.445,2.65,5.911,4.318,9.761,4.318h14.848
	c0.061,0,0.117-0.013,0.177-0.018C134.326,145.405,140.207,139.424,140.207,132.081z M60.955,138.423H60.08
	c0.158-0.295,0.302-0.599,0.438-0.906C60.653,137.824,60.797,138.128,60.955,138.423z M48.135,125.742c3.496,0,6.34,2.845,6.34,6.34
	c0,3.496-2.844,6.341-6.34,6.341c-3.496,0-6.34-2.845-6.34-6.341C41.795,128.587,44.639,125.742,48.135,125.742z M23.614,125.742
	c3.496,0,6.34,2.845,6.34,6.34c0,3.496-2.844,6.341-6.34,6.341c-3.496,0-6.339-2.845-6.339-6.341
	C17.275,128.587,20.119,125.742,23.614,125.742z M-6.551,132.082c0-3.495,2.844-6.34,6.34-6.34c3.496,0,6.339,2.845,6.339,6.34
	c0,3.496-2.844,6.341-6.339,6.341C-3.707,138.423-6.551,135.578-6.551,132.082z M72.899,138.423c-3.495,0-6.339-2.845-6.339-6.341
	c0-3.495,2.844-6.34,6.339-6.34c3.496,0,6.339,2.845,6.339,6.34C79.238,135.578,76.395,138.423,72.899,138.423z M126.677,138.423
	c-3.495,0-6.34-2.845-6.34-6.342c0-3.495,2.845-6.339,6.34-6.339s6.34,2.844,6.34,6.339
	C133.017,135.578,130.172,138.423,126.677,138.423z"/>
<path fill="#41ABE6" d="M126.677,120.709c-6.271,0-11.373,5.102-11.373,11.372c0,3.381,1.49,6.413,3.84,8.498h-7.14
	c-4.608,0-8.356-3.841-8.356-8.562l-0.005-29.363h-2.876l0.005,29.422c0,4.835-3.636,8.484-8.465,8.503l-0.001-0.012
	c-3.823,0-7.95-3.25-7.95-8.498h-0.085c-0.007-6.266-5.105-11.36-11.372-11.36c-6.271,0-11.373,5.102-11.373,11.373
	c0,3.381,1.491,6.412,3.839,8.497h-9.697c2.349-2.085,3.84-5.116,3.84-8.497c0-6.271-5.103-11.373-11.374-11.373
	c-6.271,0-11.373,5.102-11.373,11.373v8.497h-5.614c2.349-2.085,3.839-5.116,3.839-8.497c0-6.271-5.102-11.373-11.373-11.373
	c-6.271,0-11.373,5.102-11.373,11.373c0,3.381,1.491,6.412,3.839,8.497H7.322c2.349-2.085,3.839-5.116,3.839-8.497
	c0-6.271-5.102-11.373-11.373-11.373c-6.271,0-11.373,5.102-11.373,11.373c0,3.381,1.491,6.412,3.839,8.497h-9.22
	c-4.676,0-8.48-3.84-8.48-8.561v-29.622h-2.876v29.622c0,6.307,5.094,11.437,11.356,11.437h53.727v18.247h2.876v-18.247h34.213
	v-0.048c3.865-0.323,7.184-2.581,8.983-5.805c1.971,3.686,5.797,5.826,9.435,5.841l0.002,0.012c4.344,0,8.043-2.32,9.964-5.813
	c1.932,3.466,5.583,5.813,9.77,5.813h14.848v-0.009c6.19-0.095,11.198-5.151,11.198-11.365
	C138.05,125.811,132.948,120.709,126.677,120.709z M-0.211,140.579c-4.685,0-8.497-3.812-8.497-8.497s3.812-8.496,8.497-8.496
	c4.685,0,8.496,3.811,8.496,8.496S4.474,140.579-0.211,140.579z M23.614,140.579c-4.685,0-8.497-3.812-8.497-8.497
	s3.812-8.496,8.497-8.496c4.686,0,8.497,3.811,8.497,8.496S28.3,140.579,23.614,140.579z M39.638,140.579v-0.975
	c0.304,0.342,0.622,0.671,0.963,0.975H39.638z M48.135,140.579c-4.686,0-8.497-3.812-8.497-8.497s3.812-8.496,8.497-8.496
	c4.685,0,8.497,3.811,8.497,8.496S52.82,140.579,48.135,140.579z M72.899,140.579c-4.685,0-8.496-3.812-8.496-8.497
	s3.811-8.496,8.496-8.496s8.497,3.811,8.497,8.496S77.584,140.579,72.899,140.579z M126.677,140.579
	c-4.686,0-8.497-3.812-8.497-8.498c0-4.685,3.812-8.495,8.497-8.495c4.685,0,8.497,3.811,8.497,8.495
	C135.174,136.767,131.361,140.579,126.677,140.579z"/>
</svg>
