<?xml version="1.0" encoding="utf-8"?>
<!-- Generator: Adobe Illustrator 15.0.2, SVG Export Plug-In  -->
<!DOCTYPE svg PUBLIC "-//W3C//DTD SVG 1.1//EN" "http://www.w3.org/Graphics/SVG/1.1/DTD/svg11.dtd" [
	<!ENTITY ns_flows "http://ns.adobe.com/Flows/1.0/">
]>
<svg version="1.1"
	 xmlns="http://www.w3.org/2000/svg" xmlns:xlink="http://www.w3.org/1999/xlink" xmlns:a="http://ns.adobe.com/AdobeSVGViewerExtensions/3.0/"
	 x="0px" y="0px" width="175px" height="69px" viewBox="0 0 175 69" overflow="visible" enable-background="new 0 0 175 69"
	 xml:space="preserve">
<defs>
</defs>
<path d="M33.6,45.879c-6.291,0-11.408-5.118-11.408-11.409c0-6.29,5.118-11.408,11.408-11.408c6.29,0,11.408,5.118,11.408,11.408
	C45.008,40.761,39.89,45.879,33.6,45.879z M33.6,25.768c-4.798,0-8.703,3.904-8.703,8.702c0,4.799,3.905,8.703,8.703,8.703
	s8.703-3.904,8.703-8.703C42.303,29.672,38.398,25.768,33.6,25.768z"/>
<path d="M162.255,46.336H147.3c-6.163,0-10.99-4.731-10.99-11.355h2.35c0,4.731,3.796,8.517,8.641,8.517h14.955V46.336z"/>
<path d="M57.715,45.879c-6.291,0-11.408-5.118-11.408-11.409c0-6.29,5.118-11.408,11.408-11.408c6.29,0,11.408,5.118,11.408,11.408
	C69.123,40.761,64.004,45.879,57.715,45.879z M57.715,25.768c-4.799,0-8.703,3.904-8.703,8.702c0,4.799,3.904,8.703,8.703,8.703
	c4.798,0,8.702-3.904,8.702-8.703C66.417,29.672,62.513,25.768,57.715,25.768z"/>
<path d="M158.893,46.555c-6.291,0-11.408-5.118-11.408-11.408c0-6.29,5.117-11.408,11.408-11.408c6.29,0,11.408,5.118,11.408,11.408
	C170.301,41.438,165.183,46.555,158.893,46.555z M158.893,26.444c-4.799,0-8.702,3.904-8.702,8.703c0,4.798,3.903,8.702,8.702,8.702
	s8.702-3.904,8.702-8.702C167.595,30.348,163.692,26.444,158.893,26.444z"/>
<path d="M82.533,45.879c-6.291,0-11.409-5.118-11.409-11.409c0-6.29,5.118-11.408,11.409-11.408c6.29,0,11.408,5.118,11.408,11.408
	C93.941,40.761,88.823,45.879,82.533,45.879z M82.533,25.768c-4.799,0-8.704,3.904-8.704,8.702c0,4.799,3.905,8.703,8.704,8.703
	c4.798,0,8.701-3.904,8.701-8.703C91.234,29.672,87.331,25.768,82.533,25.768z"/>
<rect x="70.465" y="34.035" width="2.839" height="30.281"/>
<path d="M107.596,45.879c-6.291,0-11.407-5.118-11.407-11.409c0-6.29,5.116-11.408,11.407-11.408s11.409,5.118,11.409,11.408
	C119.005,40.761,113.887,45.879,107.596,45.879z M107.596,25.768c-4.798,0-8.702,3.904-8.702,8.702c0,4.799,3.904,8.703,8.702,8.703
	c4.799,0,8.702-3.904,8.702-8.703C116.298,29.672,112.395,25.768,107.596,25.768z"/>
<path d="M127.243,45.879c-5.678,0-10.944-4.274-10.944-11.845h2.707c0,5.678,4.452,9.139,8.237,9.139V45.879z"/>
<path d="M108.317,46.336H16.002c-6.206,0-11.255-5.129-11.255-11.357C4.747,29.394,4.7,4.733,4.7,4.733l2.35-0.021
	c0,0,0.047,24.444,0.047,30.03c0,4.932,3.995,8.755,8.905,8.755h92.314V46.336z"/>
<path d="M127.243,45.892v-2.706c4.731,0,8.644-3.744,8.644-8.708L135.82,4.7h2.705l0.066,29.778
	C138.591,40.878,133.867,45.892,127.243,45.892z"/>
<path fill="#41ABE6" d="M33.6,50.579c-8.882,0-16.108-7.226-16.108-16.108c0-8.881,7.226-16.107,16.108-16.107
	s16.107,7.226,16.107,16.107C49.708,43.353,42.482,50.579,33.6,50.579z M33.6,30.468c-2.208,0-4.003,1.795-4.003,4.002
	c0,2.208,1.796,4.003,4.003,4.003s4.003-1.796,4.003-4.003C37.603,32.263,35.808,30.468,33.6,30.468z"/>
<path fill="#41ABE6" d="M147.3,51.036c-8.944,0-15.689-6.901-15.689-16.055c0-2.595,2.104-4.7,4.699-4.7h2.35
	c2.597,0,4.699,2.104,4.699,4.7c0,2.14,1.732,3.817,3.941,3.817h14.955c2.596,0,4.699,2.104,4.699,4.7v2.839
	c0,2.596-2.104,4.699-4.699,4.699H147.3z"/>
<path fill="#41ABE6" d="M57.715,50.579c-8.882,0-16.108-7.226-16.108-16.108c0-8.881,7.226-16.107,16.108-16.107
	c8.881,0,16.107,7.226,16.107,16.107C73.822,43.353,66.596,50.579,57.715,50.579z M57.715,30.468c-2.208,0-4.003,1.795-4.003,4.002
	c0,2.208,1.796,4.003,4.003,4.003c2.207,0,4.002-1.796,4.002-4.003C61.717,32.263,59.922,30.468,57.715,30.468z"/>
<path fill="#41ABE6" d="M158.893,51.254c-8.882,0-16.107-7.226-16.107-16.107s7.226-16.107,16.107-16.107
	c8.881,0,16.106,7.226,16.106,16.107S167.774,51.254,158.893,51.254z M158.893,31.144c-2.207,0-4.003,1.795-4.003,4.003
	c0,2.207,1.796,4.002,4.003,4.002c2.206,0,4.003-1.796,4.003-4.002C162.896,32.939,161.099,31.144,158.893,31.144z"/>
<path fill="#41ABE6" d="M82.533,50.579c-8.882,0-16.108-7.226-16.108-16.108c0-8.881,7.226-16.107,16.108-16.107
	c8.881,0,16.107,7.226,16.107,16.107C98.641,43.353,91.415,50.579,82.533,50.579z M82.533,30.468c-2.208,0-4.004,1.795-4.004,4.002
	c0,2.208,1.796,4.003,4.004,4.003c2.207,0,4.002-1.796,4.002-4.003C86.535,32.263,84.74,30.468,82.533,30.468z"/>
<path fill="#41ABE6" d="M70.465,69.015c-2.596,0-4.7-2.104-4.7-4.699V34.035c0-2.595,2.104-4.7,4.7-4.7h2.839
	c2.595,0,4.699,2.104,4.699,4.7v30.281c0,2.596-2.104,4.699-4.699,4.699H70.465z"/>
<path fill="#41ABE6" d="M107.596,50.579c-8.882,0-16.107-7.226-16.107-16.108c0-8.881,7.225-16.107,16.107-16.107
	c8.883,0,16.108,7.226,16.108,16.107C123.705,43.353,116.479,50.579,107.596,50.579z M107.596,30.468
	c-2.207,0-4.003,1.795-4.003,4.002c0,2.208,1.796,4.003,4.003,4.003s4.003-1.796,4.003-4.003
	C111.599,32.263,109.803,30.468,107.596,30.468z"/>
<path fill="#41ABE6" d="M127.243,50.579c-7.584,0-15.644-5.799-15.644-16.544c0-2.595,2.104-4.7,4.699-4.7h2.707
	c2.596,0,4.699,2.104,4.699,4.7c0,3.099,2.343,4.439,3.538,4.439c2.596,0,4.699,2.104,4.699,4.7v2.706
	C131.942,48.475,129.838,50.579,127.243,50.579z"/>
<path fill="#41ABE6" d="M16.002,51.036c-8.797,0-15.955-7.203-15.955-16.057C0.047,29.396,0,4.742,0,4.742
	c-0.005-2.583,2.076-4.686,4.659-4.709c0,0,2.377-0.021,2.391-0.021c1.237,0,2.425,0.488,3.305,1.359
	c0.89,0.88,1.392,2.08,1.394,3.331c0,0,0.048,24.451,0.048,30.04c0,2.274,1.847,4.055,4.206,4.055h92.314
	c2.596,0,4.699,2.104,4.699,4.7v2.839c0,2.596-2.104,4.699-4.699,4.699H16.002z"/>
<path fill="#41ABE6" d="M127.243,50.591c-2.596,0-4.699-2.104-4.699-4.699v-2.706c0-2.595,2.104-4.699,4.699-4.699
	c2.248,0,3.944-1.724,3.944-4.009L131.121,4.71c-0.003-1.249,0.49-2.447,1.372-3.33C133.375,0.497,134.571,0,135.82,0h2.705
	c2.592,0,4.694,2.098,4.699,4.689l0.066,29.778C143.291,43.664,136.392,50.591,127.243,50.591z"/>
<path fill="#C3D2A0" d="M33.6,48.229c-7.586,0-13.758-6.172-13.758-13.759c0-7.586,6.171-13.757,13.758-13.757
	s13.757,6.171,13.757,13.757C47.357,42.057,41.187,48.229,33.6,48.229z M33.6,28.118c-3.503,0-6.354,2.85-6.354,6.353
	c0,3.503,2.851,6.354,6.354,6.354s6.353-2.85,6.353-6.354C39.953,30.967,37.103,28.118,33.6,28.118z"/>
<path fill="#C3D2A0" d="M147.3,48.686c-7.605,0-13.34-5.892-13.34-13.705c0-1.298,1.052-2.35,2.35-2.35h2.35
	c1.298,0,2.351,1.052,2.351,2.35c0,3.458,2.763,6.167,6.29,6.167h14.955c1.298,0,2.351,1.052,2.351,2.35v2.839
	c0,1.298-1.053,2.35-2.351,2.35H147.3z"/>
<path fill="#C3D2A0" d="M57.715,48.229c-7.586,0-13.758-6.172-13.758-13.759c0-7.586,6.171-13.757,13.758-13.757
	c7.586,0,13.757,6.171,13.757,13.757C71.472,42.057,65.301,48.229,57.715,48.229z M57.715,28.118c-3.503,0-6.354,2.85-6.354,6.353
	c0,3.503,2.85,6.354,6.354,6.354c3.502,0,6.353-2.85,6.353-6.354C64.067,30.967,61.217,28.118,57.715,28.118z"/>
<path fill="#C3D2A0" d="M158.893,48.906c-7.587,0-13.759-6.172-13.759-13.759s6.172-13.757,13.759-13.757
	c7.586,0,13.758,6.171,13.758,13.757S166.479,48.906,158.893,48.906z M158.893,28.794c-3.503,0-6.352,2.85-6.352,6.353
	c0,3.502,2.849,6.352,6.352,6.352c3.502,0,6.352-2.85,6.352-6.352C165.245,31.644,162.395,28.794,158.893,28.794z"/>
<path fill="#C3D2A0" d="M82.533,48.229c-7.586,0-13.758-6.172-13.758-13.759c0-7.586,6.172-13.757,13.758-13.757
	c7.586,0,13.757,6.171,13.757,13.757C96.291,42.057,90.119,48.229,82.533,48.229z M82.533,28.118c-3.503,0-6.354,2.85-6.354,6.353
	c0,3.503,2.851,6.354,6.354,6.354c3.502,0,6.352-2.85,6.352-6.354C88.885,30.967,86.036,28.118,82.533,28.118z"/>
<path fill="#C3D2A0" d="M70.465,66.667c-1.298,0-2.35-1.053-2.35-2.351V34.035c0-1.298,1.051-2.35,2.35-2.35h2.839
	c1.298,0,2.349,1.052,2.349,2.35v30.281c0,1.298-1.051,2.351-2.349,2.351H70.465z"/>
<path fill="#C3D2A0" d="M107.596,48.229c-7.586,0-13.757-6.172-13.757-13.759c0-7.586,6.171-13.757,13.757-13.757
	c7.587,0,13.759,6.171,13.759,13.757C121.355,42.057,115.183,48.229,107.596,48.229z M107.596,28.118
	c-3.503,0-6.352,2.85-6.352,6.353c0,3.503,2.849,6.354,6.352,6.354c3.502,0,6.353-2.85,6.353-6.354
	C113.949,30.967,111.098,28.118,107.596,28.118z"/>
<path fill="#C3D2A0" d="M127.243,48.229c-6.606,0-13.294-4.875-13.294-14.194c0-1.298,1.052-2.35,2.35-2.35h2.707
	c1.297,0,2.35,1.052,2.35,2.35c0,4.43,3.419,6.789,5.888,6.789c1.298,0,2.35,1.052,2.35,2.35v2.706
	C129.592,47.176,128.541,48.229,127.243,48.229z"/>
<path fill="#C3D2A0" d="M16.002,48.686c-7.502,0-13.605-6.148-13.605-13.707c0-5.584-0.047-30.242-0.047-30.242
	C2.347,3.446,3.388,2.395,4.679,2.383c0,0,2.363-0.021,2.371-0.021c0.619,0,1.212,0.244,1.652,0.679
	c0.445,0.44,0.696,1.04,0.697,1.666c0,0,0.048,24.447,0.048,30.035c0,3.591,2.879,6.405,6.556,6.405h92.314
	c1.298,0,2.35,1.052,2.35,2.35v2.839c0,1.298-1.052,2.35-2.35,2.35H16.002z"/>
<path fill="#C3D2A0" d="M127.243,48.242c-1.298,0-2.35-1.053-2.35-2.35v-2.706c0-1.297,1.052-2.35,2.35-2.35
	c3.529,0,6.293-2.793,6.293-6.359l-0.066-29.773c-0.001-0.624,0.246-1.223,0.687-1.665c0.441-0.442,1.04-0.69,1.664-0.69h2.705
	c1.296,0,2.348,1.048,2.351,2.344l0.066,29.778C140.942,42.324,135.052,48.242,127.243,48.242z"/>
<path fill="#41ABE6" d="M33.6,45.879c-6.291,0-11.408-5.118-11.408-11.409c0-6.29,5.118-11.408,11.408-11.408
	c6.29,0,11.408,5.118,11.408,11.408C45.008,40.761,39.89,45.879,33.6,45.879z M33.6,25.768c-4.798,0-8.703,3.904-8.703,8.702
	c0,4.799,3.905,8.703,8.703,8.703s8.703-3.904,8.703-8.703C42.303,29.672,38.398,25.768,33.6,25.768z"/>
<path fill="#41ABE6" d="M162.255,46.336H147.3c-6.163,0-10.99-4.731-10.99-11.355h2.35c0,4.731,3.796,8.517,8.641,8.517h14.955
	V46.336z"/>
<path fill="#41ABE6" d="M57.715,45.879c-6.291,0-11.408-5.118-11.408-11.409c0-6.29,5.118-11.408,11.408-11.408
	c6.29,0,11.408,5.118,11.408,11.408C69.123,40.761,64.004,45.879,57.715,45.879z M57.715,25.768c-4.799,0-8.703,3.904-8.703,8.702
	c0,4.799,3.904,8.703,8.703,8.703c4.798,0,8.702-3.904,8.702-8.703C66.417,29.672,62.513,25.768,57.715,25.768z"/>
<path fill="#41ABE6" d="M158.893,46.555c-6.291,0-11.408-5.118-11.408-11.408c0-6.29,5.117-11.408,11.408-11.408
	c6.29,0,11.408,5.118,11.408,11.408C170.301,41.438,165.183,46.555,158.893,46.555z M158.893,26.444
	c-4.799,0-8.702,3.904-8.702,8.703c0,4.798,3.903,8.702,8.702,8.702s8.702-3.904,8.702-8.702
	C167.595,30.348,163.692,26.444,158.893,26.444z"/>
<path fill="#41ABE6" d="M82.533,45.879c-6.291,0-11.409-5.118-11.409-11.409c0-6.29,5.118-11.408,11.409-11.408
	c6.29,0,11.408,5.118,11.408,11.408C93.941,40.761,88.823,45.879,82.533,45.879z M82.533,25.768c-4.799,0-8.704,3.904-8.704,8.702
	c0,4.799,3.905,8.703,8.704,8.703c4.798,0,8.701-3.904,8.701-8.703C91.234,29.672,87.331,25.768,82.533,25.768z"/>
<rect x="70.465" y="34.035" fill="#41ABE6" width="2.839" height="30.281"/>
<path fill="#41ABE6" d="M107.596,45.879c-6.291,0-11.407-5.118-11.407-11.409c0-6.29,5.116-11.408,11.407-11.408
	s11.409,5.118,11.409,11.408C119.005,40.761,113.887,45.879,107.596,45.879z M107.596,25.768c-4.798,0-8.702,3.904-8.702,8.702
	c0,4.799,3.904,8.703,8.702,8.703c4.799,0,8.702-3.904,8.702-8.703C116.298,29.672,112.395,25.768,107.596,25.768z"/>
<path fill="#41ABE6" d="M127.243,45.879c-5.678,0-10.944-4.274-10.944-11.845h2.707c0,5.678,4.452,9.139,8.237,9.139V45.879z"/>
<path fill="#41ABE6" d="M108.317,46.336H16.002c-6.206,0-11.255-5.129-11.255-11.357C4.747,29.394,4.7,4.733,4.7,4.733l2.35-0.021
	c0,0,0.047,24.444,0.047,30.03c0,4.932,3.995,8.755,8.905,8.755h92.314V46.336z"/>
<path fill="#41ABE6" d="M127.243,45.892v-2.706c4.731,0,8.644-3.744,8.644-8.708L135.82,4.7h2.705l0.066,29.778
	C138.591,40.878,133.867,45.892,127.243,45.892z"/>
</svg>
